LUX
1
   6.06956089   50.22474610
   5.92699762   50.21037307
   5.72754202   49.94565362
   5.66380385   49.79535143
   5.79540074   49.61748501
   5.75811493   49.54833984
   5.99718257   49.39110951
   6.08710706   49.40009273
   6.24063679   49.45758487
   6.42487236   49.39649940
   6.49067081   49.56358611
   6.57405767   49.70362885
   6.67051979   49.84026720
   6.55147858   49.88350181
   6.28669568   49.96962461
   6.20554428   50.08820222
   6.21651066   50.16186406
   6.06956089   50.22474610
END
END
