NLD-BEL-LUX
1
   6.38426322   53.76178402
   6.14907322   53.73153507
   5.83898152   53.70042094
   5.53847261   53.68425133
   5.13226102   53.59613691
   4.82029203   53.49732223
   4.53055638   53.31011971
   4.33955502   53.02265874
   4.31819273   52.86706178
   4.30769096   52.73997721
   4.23768757   52.55014496
   4.14891852   52.35869475
   3.95301157   52.23644452
   3.71010267   52.09315287
   3.53920145   51.92622693
   3.28265486   51.80785929
   3.00880417   51.53935198
   2.41990808   51.33633264
   2.39603584   51.27480369
   2.36068952   51.24470444
   2.40630811   51.05412193
   2.60381408   50.73023546
   2.95912555   50.60896274
   3.16639057   50.63321728
   3.18942002   50.49308008
   3.49867268   50.40684178
   3.73554703   50.22628041
   3.95268182   50.26400970
   4.13085938   50.14160156
   4.04479961   49.98373529
   4.23704149   49.84782424
   4.51270804   49.86572647
   4.62382575   49.89749707
   4.69949397   49.93792123
   4.78832186   50.08344834
   4.79490174   49.91636164
   4.78832186   49.87863243
   4.81464121   49.76274977
   5.05480528   49.66034160
   5.21601140   49.55523874
   5.51539429   49.43666113
   5.77529783   49.48247535
   5.93650404   49.39623705
   6.24904652   49.40162695
   6.43986197   49.40701685
   6.53088315   49.60509539
   6.57036217   49.82877620
   6.28907388   49.93522653
   6.20682595   50.11713579
   6.43054063   50.25053563
   6.36967686   50.50520819
   6.25420072   50.57572623
   6.28315223   50.61129961
   6.28841615   50.63986606
   6.25551693   50.65495784
   6.20353614   50.66951050
   6.18379659   50.67705640
   6.14157602   50.72484691
   6.09661373   50.73562670
   6.04836146   50.74999966
   6.03191189   50.79850866
   6.05000641   50.82994977
   6.10264518   50.84117867
   6.10593508   50.92831518
   6.07742236   50.93190841
   6.04178159   50.94673064
   6.05823115   50.98086661
   6.03355676   50.99434135
   5.96172687   50.99748566
   5.92115116   50.99389242
   5.90689489   51.04554548
   5.93540752   51.01500283
   5.99462600   51.03476560
   6.07248760   51.10034276
   6.16186375   51.13268215
   6.20079450   51.18119108
   6.17447516   51.20185238
   6.10045189   51.19242006
   6.11470825   51.23508998
   6.17995835   51.30291291
   6.25452988   51.36175252
   6.22875880   51.41924484
   6.24191863   51.46236411
   6.22437238   51.51716131
   6.19805303   51.54231423
   6.11744989   51.60968788
   6.13115782   51.65774778
   6.05384474   51.69098563
   6.04726494   51.73140988
   5.99956110   51.74937615
   5.99133627   51.81674981
   6.07687427   51.84325011
   6.17612019   51.82887699
   6.18160347   51.85627568
   6.14541426   51.89400489
   6.16679876   51.88547085
   6.20024633   51.85986891
   6.23643545   51.85268235
   6.32833396   51.79986153
   6.40400268   51.79042929
   6.49118562   51.82815858
   6.64910177   51.87397264
   6.81195293   51.88744739
   6.86788168   51.93730429
   6.88762123   52.00198299
   6.86788168   52.02354250
   6.75931432   52.04510202
   6.80537322   52.09900101
   6.88762123   52.07474646
   6.97973910   52.13134057
   7.09488633   52.19871422
   7.12259036   52.31276678
   7.07185688   52.46820892
   6.99618875   52.47090387
   6.83169273   52.50324335
   6.84814230   52.55714234
   6.91065084   52.60026145
   7.08172674   52.58678670
   7.17325704   52.75149202
   7.19863485   52.85159608
   7.22721077   52.96375869
   7.30215135   53.25513351
   7.26596215   53.36293166
   7.11462580   53.40335581
   6.83169256   53.53810354
   6.56849879   53.64051146
   6.36869224   53.77677773
END
END
