NLD-BEL-LUX-GER-FRA-AUS
1
   7.28549927   53.95374586
   4.82029203   53.49732223
   4.53055638   53.31011971
   4.33955502   53.02265874
   4.36197057   52.87799573
   4.30769096   52.73997721
   4.23768757   52.55014496
   4.14891852   52.35869475
   3.98047261   52.20519184
   3.71010267   52.09315287
   3.53920145   51.92622693
   3.28265486   51.80785929
   2.99941150   51.48509592
   2.39516068   51.27004595
   2.01473367   51.22185764
   1.71333519   51.08983696
   1.31619844   50.92008733
   1.23583158   50.46550781
   1.17187724   50.25574724
   1.07688412   50.17342212
   0.81366856   50.10852356
   0.14019479   49.91653464
   -0.06795201   49.82215550
   -1.24071898   49.90858097
   -1.69285728   49.90855213
   -1.92147201   49.93286133
   -2.05135295   49.87945310
   -2.05423423   49.76600655
   -2.95983349   49.31117247
   -3.19002192   49.11386431
   -3.83207353   49.04616946
   -4.82884686   48.76609739
   -4.87974470   47.76462416
   -4.31055891   47.55970624
   -4.08160178   47.46744588
   -3.46917065   47.19563987
   -3.25550747   47.09434960
   -2.67401713   46.62126333
   -2.01953734   46.32274470
   -1.94752581   46.22995100
   -1.68844974   45.98256106
   -1.54642283   45.55621446
   -1.45331849   45.29249674
   -1.54710864   44.63508806
   -1.59294893   44.07453932
   -1.68462968   43.83738410
   -1.88469574   43.70191595
   -2.06564133   43.61657602
   -2.48322506   43.29873442
   2.94514529   41.97821100
   3.24389300   42.48397546
   3.15985235   42.60255307
   3.13947888   42.72113068
   3.60297583   43.28527266
   4.45356885   43.31401882
   5.18446779   43.20262777
   5.93064669   42.99242196
   6.39154801   42.93264532
   6.62843853   43.04093122
   6.79906650   43.30862917
   7.17788603   43.50131789
   7.30776697   43.60821742
   7.62590362   43.74098383
   7.75216366   44.03851029
   7.75343696   44.16157943
   7.68977003   44.19212233
   7.05437190   44.26668255
   6.98306445   44.43826069
   7.15076203   44.68753019
   7.06851401   44.85821005
   6.90284369   45.11648892
   7.21656047   45.19956985
   7.20230402   45.77808461
   6.95342872   46.34216574
   6.60205876   46.67360396
   6.63574219   46.75781250
   6.84041267   46.97284394
   7.67385942   47.39505214
   8.91999654   47.58156164
   9.32101336   47.40313774
   9.38352183   47.00967561
   10.12375418   46.79677494
   11.00764934   46.71540351
   11.40792017   46.84887735
   11.63229399   46.91994675
   11.83093554   46.96126929
   12.00953747   46.97955600
   12.07320465   46.92475880
   12.07032396   46.83370871
   12.11140492   46.83223232
   12.44978009   46.59834989
   12.72227542   46.54804423
   13.01514432   46.53726443
   13.43025413   46.48695868
   13.66200261   46.45102604
   14.13059274   46.38095727
   14.28084699   46.32526162
   14.47439502   46.30909192
   14.74689044   46.38634700
   14.90223829   46.51750107
   15.15181348   46.56780674
   15.44468237   46.55343371
   15.61785718   46.63428202
   15.81649865   46.65584162
   15.96929982   46.59295949
   16.07626062   46.65584162
   16.14502114   46.76723267
   16.26632254   46.86636820
   16.38186288   46.89838691
   16.52193069   46.95767563
   16.57795767   47.02055784
   17.50986421   47.81511063
   17.03542166   48.21743427
   16.95647436   48.33780854
   16.93992094   48.43572493
   16.99340126   48.57226873
   16.99212788   48.68276149
   16.92591419   48.75462659
   16.80621995   48.78427103
   16.46751093   48.85433972
   16.31598313   48.78247445
   16.04603439   48.84176326
   15.93016027   48.89476405
   15.69331845   48.92890002
   15.50070953   49.01841111
   15.25401528   49.04208773
   15.04391366   49.04118936
   14.88347246   49.02052813
   14.73321788   48.76540647
   14.45690257   48.67108332
   14.27990788   48.61538784
   14.16403376   48.65311713
   14.06343986   48.71689763
   13.86734490   48.80044098
   13.79094436   48.90913717
   13.50571549   49.02412145
   13.37456116   49.12832603
   13.12498589   49.25588686
   13.00147167   49.35020976
   12.82702373   49.41758341
   12.67422264   49.55772053
   12.53670160   49.73379037
   12.54943497   49.82631686
   12.58636211   49.94219961
   12.32204273   50.14390441
   12.68695660   50.37267286
   12.92570841   50.38974118
   13.03806455   50.39103711
   13.19693045   50.48765749
   13.34336506   50.56446338
   13.44395913   50.57659065
   13.52545311   50.58377713
   13.73810149   50.70190564
   13.79922191   50.70594806
   13.90809269   50.71807534
   13.95838972   50.76613524
   14.00677669   50.78679663
   14.14429774   50.81868684
   14.27736221   50.86989080
   14.38814306   50.87887402
   14.57787112   50.88965373
   14.63644495   50.81419523
   14.70329541   50.79802562
   14.80834605   50.80611063
   14.86500981   50.86090783
   14.93058706   50.94849369
   15.00889767   51.08683423
   15.06619812   51.27727702
   15.00889733   51.34465076
   14.99043359   51.44795696
   14.92867649   51.50140668
   14.79497583   51.60561117
   14.76632564   51.67388320
   14.73512853   51.71296005
   14.69501819   51.73317217
   14.69629157   51.77494381
   14.71284499   51.89037737
   14.77842215   51.98245467
   14.78224212   52.07363351
   14.75677522   52.10776957
   14.73894842   52.21197414
   14.72812478   52.25823730
   14.68355779   52.29012751
   14.66063764   52.50437566
   14.66254754   52.58163091
   14.64026400   52.61531769
   14.40278524   53.08872976
   14.42252202   53.19113776
   14.48555251   53.27423193
   14.43334549   53.33037660
   14.42443200   53.38158072
   14.40342184   53.45299680
   14.37986484   53.50375165
   14.34484793   53.57786268
   14.31174075   53.67712663
   14.30028068   53.80828061
   14.26730108   53.99495071
   14.23690796   54.12551880
   14.17019094   54.26226527
   14.03937290   54.63095787
   13.98843918   54.69294162
   13.51093557   54.90224906
   12.94054027   54.78025683
   12.40694731   54.63994109
   12.22995261   54.45488828
   11.46340015   54.46476962
   11.16543783   54.59233037
   10.85474222   54.56627925
   10.02070254   54.80163806
   9.44660026   54.87318163
   8.61367252   55.02819864
   8.06096571   55.17372575
   7.26809467   54.13886656
END
END
