USA
1
   -81.70961841   42.70348032
   -80.92003726   46.26080881
   -83.84806738   47.85082684
   -89.27643766   49.35999655
   -98.19212473   49.89898570
   -114.08244515   50.00678351
   -123.68901570   49.97983410
   -127.14201481   49.54947006
   -126.02485992   43.18857056
   -123.95220939   33.86405792
   -117.63556031   30.52232506
   -110.23323708   29.92943692
   -103.85078955   28.39331780
   -100.16607760   26.72245136
   -97.27094670   24.34820403
   -95.42859072   25.45313182
   -95.98787740   26.98925095
   -94.17842056   28.57926906
   -91.77677798   28.47147116
   -87.69727545   28.82181418
   -86.67739975   29.09130871
   -84.11126107   25.56092964
   -83.22298226   23.53433029
   -80.65684358   23.66907760
   -77.99200723   24.45061186
   -77.66301510   26.36402342
   -78.74868915   28.16963715
   -79.14347973   30.35254332
   -78.09070489   32.02340975
   -74.80078342   34.74530507
   -73.35321802   36.30837360
   -72.09646798   39.03026892
   -69.33293405   40.24299460
   -68.01696545   41.88691154
   -65.68878648   42.72003215
   -64.66891087   43.85190943
   -64.33991874   45.17243293
   -65.82038336   46.87024877
   -66.51126685   47.86737875
   -70.06438200   47.70568203
   -71.77514110   47.11279389
   -73.45300105   46.06176501
   -77.82859650   44.47174698
   -81.90809911   42.58528484
END
END
